# xmcd
#
# Track frame offsets: 
#        150
#        15294
#        28956
#        41182
#        53598
#        62289
#        74401
#        84562
#        96622
#        107419
#        117320
#        130398
#        138766
#        146577
#        156721
#        167205
#        175756
#        184367
#        195252
#        209576
#        218936
#        230099
#
# Disc length: 3267 seconds
#
# Revision: 0
# Processed by: cddbd v1.5.2PL0 Copyright (c) Steve Scherf et al.
# Submitted via: ExactAudioCopy v0.95b4
#
DISCID=490cc116
DTITLE=Arthur Smith and his Cracker-Jacks - Guitar Boogie
DYEAR=1955
DGENRE=Country
TTITLE0=Guitar Boogie
TTITLE1=Boomerang
TTITLE2=Mandolin Boogie
TTITLE3=12th Street Rag
TTITLE4=Hard Boiled Boogie
TTITLE5=Banjo Boogie
TTITLE6=I. H. Boogie
TTITLE7=Mountain Be Bop
TTITLE8=Banjo Rag
TTITLE9=Hi Lo Boogie
TTITLE10=Cracker Boogie
TTITLE11=Glow Worm
TTITLE12=11 String Strut
TTITLE13=Travelin' Blues
TTITLE14=Flat Top Hari Kari
TTITLE15=Guitar Hop
TTITLE16=Maggie Blues on Guitar
TTITLE17=In The Good Old Summertime
TTITLE18=Troubled Mind Blues
TTITLE19=Philadelphia Guitar
TTITLE20=Guitar Boogie (version 2)
TTITLE21=Guitar Boogie (45 t. EP version)
EXTD=
EXTT0=
EXTT1=
EXTT2=
EXTT3=
EXTT4=
EXTT5=
EXTT6=
EXTT7=
EXTT8=
EXTT9=
EXTT10=
EXTT11=
EXTT12=
EXTT13=
EXTT14=
EXTT15=
EXTT16=
EXTT17=
EXTT18=
EXTT19=
EXTT20=
EXTT21=
PLAYORDER=
